<svg width="54" height="31" viewBox="0 0 54 31" fill="none" xmlns="http://www.w3.org/2000/svg">
<path d="M9.15863 0.872C11.7986 0.872 14.1146 1.388 16.1066 2.42C18.1226 3.452 19.6706 4.928 20.7506 6.848C21.8546 8.744 22.4066 10.952 22.4066 13.472C22.4066 15.992 21.8546 18.2 20.7506 20.096C19.6706 21.968 18.1226 23.42 16.1066 24.452C14.1146 25.484 11.7986 26 9.15863 26H0.374625V0.872H9.15863ZM8.97863 21.716C11.6186 21.716 13.6586 20.996 15.0986 19.556C16.5386 18.116 17.2586 16.088 17.2586 13.472C17.2586 10.856 16.5386 8.816 15.0986 7.352C13.6586 5.864 11.6186 5.12 8.97863 5.12H5.41463V21.716H8.97863ZM31.3273 21.752H42.6313V26H25.4953V22.112L36.7273 5.12H25.4953V0.872H42.6313V4.76L31.3273 21.752Z" fill="#E7DFDD"/>
<path d="M50.0535 11.492C49.1415 11.492 48.3855 11.216 47.7855 10.664C47.2095 10.088 46.9215 9.38 46.9215 8.54C46.9215 7.7 47.2095 7.004 47.7855 6.452C48.3855 5.876 49.1415 5.588 50.0535 5.588C50.9415 5.588 51.6735 5.876 52.2495 6.452C52.8255 7.004 53.1135 7.7 53.1135 8.54C53.1135 9.38 52.8255 10.088 52.2495 10.664C51.6735 11.216 50.9415 11.492 50.0535 11.492ZM53.3655 20.708L49.1535 30.824H45.9135L48.2535 20.708H53.3655Z" fill="#4D21A9"/>
</svg>
